<svg width="631" height="112" viewBox="0 0 631 112" fill="none" xmlns="http://www.w3.org/2000/svg">
<rect x="39.4375" width="552.125" height="111.312" rx="55.656" fill="white" fill-opacity="0.2"/>
<path d="M151.671 50.9884V60.4696H149.052V50.9884H139.597V48.4217H149.052V38.9667H151.671V48.4217H161.1V50.9884H151.671ZM178.702 67.7245C176.572 67.7245 174.695 67.2793 173.071 66.3888C171.447 65.4808 170.173 64.2673 169.247 62.7482C168.322 61.2291 167.859 59.5442 167.859 57.6934C167.859 55.9298 168.165 54.4369 168.776 53.2147C169.404 51.9924 170.225 50.9972 171.238 50.2289C172.25 49.4432 173.351 48.8495 174.538 48.4479C173.682 48.0987 172.862 47.5923 172.076 46.9288C171.29 46.2653 170.635 45.4185 170.112 44.3883C169.605 43.3407 169.352 42.0835 169.352 40.6168C169.352 38.9056 169.762 37.3953 170.583 36.0857C171.404 34.7762 172.521 33.7547 173.935 33.0214C175.35 32.2706 176.93 31.8952 178.676 31.8952C180.44 31.8952 182.02 32.2706 183.417 33.0214C184.813 33.7547 185.913 34.7762 186.717 36.0857C187.537 37.3953 187.948 38.9056 187.948 40.6168C187.948 42.8168 187.424 44.528 186.376 45.7502C185.346 46.9725 184.159 47.8717 182.814 48.4479C184.002 48.8495 185.102 49.4432 186.114 50.2289C187.127 50.9972 187.948 51.9924 188.576 53.2147C189.205 54.4369 189.519 55.9298 189.519 57.6934C189.519 59.5442 189.056 61.2291 188.131 62.7482C187.223 64.2673 185.957 65.4808 184.333 66.3888C182.709 67.2793 180.832 67.7245 178.702 67.7245ZM178.676 64.9745C180.108 64.9745 181.4 64.6427 182.552 63.9792C183.722 63.3157 184.648 62.4165 185.329 61.2815C186.027 60.1466 186.376 58.872 186.376 57.4576C186.376 56.0259 186.027 54.7425 185.329 53.6075C184.648 52.4726 183.722 51.5734 182.552 50.9099C181.4 50.2464 180.108 49.9146 178.676 49.9146C177.244 49.9146 175.943 50.2464 174.774 50.9099C173.604 51.5734 172.678 52.4726 171.997 53.6075C171.316 54.7425 170.976 56.0259 170.976 57.4576C170.976 58.872 171.316 60.1466 171.997 61.2815C172.678 62.4165 173.604 63.3157 174.774 63.9792C175.943 64.6427 177.244 64.9745 178.676 64.9745ZM178.702 47.3479C179.872 47.3479 180.937 47.0598 181.898 46.4836C182.875 45.8899 183.652 45.1042 184.229 44.1264C184.805 43.1486 185.093 42.0747 185.093 40.9049C185.093 39.7176 184.805 38.6437 184.229 37.6834C183.652 36.7056 182.875 35.9286 181.898 35.3524C180.937 34.7762 179.863 34.4881 178.676 34.4881C177.506 34.4881 176.424 34.7762 175.428 35.3524C174.451 35.9286 173.674 36.7056 173.097 37.6834C172.521 38.6437 172.233 39.7176 172.233 40.9049C172.233 42.0747 172.521 43.1486 173.097 44.1264C173.674 45.1042 174.451 45.8899 175.428 46.4836C176.424 47.0598 177.515 47.3479 178.702 47.3479ZM225.409 64.8435C227.819 64.8435 229.862 64.5205 231.538 63.8744C233.231 63.2284 234.428 62.5998 235.126 61.9887L236.409 64.5292C235.659 65.2277 234.314 65.9348 232.376 66.6507C230.455 67.3666 228.133 67.7245 225.409 67.7245C222.86 67.7245 220.503 67.2706 218.337 66.3626C216.19 65.4372 214.313 64.1625 212.706 62.5387C211.1 60.8974 209.852 59.0029 208.961 56.8552C208.071 54.6901 207.625 52.3591 207.625 49.8622C207.625 47.3653 208.062 45.0343 208.935 42.8692C209.825 40.6866 211.074 38.7747 212.68 37.1334C214.287 35.4921 216.172 34.2087 218.337 33.2833C220.503 32.3579 222.86 31.8952 225.409 31.8952C228.133 31.8952 230.455 32.2531 232.376 32.969C234.314 33.6849 235.659 34.392 236.409 35.0905L235.126 37.631C234.428 37.0199 233.231 36.3913 231.538 35.7452C229.862 35.0992 227.819 34.7762 225.409 34.7762C223.384 34.7762 221.489 35.1428 219.726 35.8762C217.962 36.5921 216.408 37.6135 215.064 38.9406C213.719 40.2676 212.663 41.8565 211.894 43.7073C211.144 45.5407 210.768 47.5661 210.768 49.7837C210.768 52.0186 211.144 54.0615 211.894 55.9124C212.663 57.7632 213.719 59.3521 215.064 60.6791C216.408 62.0062 217.962 63.0363 219.726 63.7697C221.489 64.4856 223.384 64.8435 225.409 64.8435ZM245.156 67.0959H242.118V31.057H245.156V67.0959ZM252.946 67.0959V45.5931H255.906V67.0959H252.946ZM254.465 36.8715C253.837 36.8715 253.295 36.6532 252.841 36.2167C252.405 35.7627 252.187 35.2214 252.187 34.5928C252.187 33.9468 252.414 33.4055 252.868 32.969C253.322 32.515 253.854 32.288 254.465 32.288C254.884 32.288 255.268 32.3928 255.618 32.6023C255.984 32.8118 256.272 33.0912 256.482 33.4404C256.709 33.7722 256.822 34.1563 256.822 34.5928C256.822 35.2214 256.587 35.7627 256.115 36.2167C255.661 36.6532 255.111 36.8715 254.465 36.8715ZM264.933 56.6981C264.951 58.1997 265.248 59.6053 265.824 60.9149C266.418 62.2244 267.308 63.2808 268.495 64.084C269.683 64.8872 271.176 65.2888 272.974 65.2888C274.441 65.2888 275.663 65.053 276.641 64.5816C277.636 64.0927 278.422 63.534 278.998 62.9054C279.592 62.2593 280.011 61.6831 280.255 61.1768L282.115 63.0101C281.469 64.0054 280.718 64.861 279.862 65.5769C279.024 66.2753 278.029 66.8078 276.877 67.1745C275.742 67.5412 274.388 67.7245 272.817 67.7245C270.53 67.7245 268.574 67.2182 266.95 66.2055C265.344 65.1753 264.113 63.7784 263.257 62.0149C262.419 60.2513 262 58.2696 262 56.0695C262 53.9742 262.419 52.0885 263.257 50.4122C264.095 48.736 265.3 47.409 266.872 46.4312C268.461 45.4534 270.372 44.9645 272.607 44.9645C274.633 44.9645 276.388 45.4097 277.872 46.3002C279.373 47.1907 280.535 48.4304 281.355 50.0194C282.193 51.5908 282.612 53.4242 282.612 55.5195C282.612 55.6766 282.604 55.8774 282.586 56.1219C282.586 56.3663 282.577 56.5584 282.56 56.6981H264.933ZM279.627 54.2099C279.609 53.2671 279.373 52.2718 278.919 51.2242C278.483 50.1591 277.758 49.2598 276.746 48.5265C275.75 47.7757 274.38 47.4003 272.634 47.4003C270.818 47.4003 269.368 47.7669 268.286 48.5003C267.221 49.2162 266.444 50.0979 265.955 51.1456C265.466 52.1932 265.169 53.2147 265.064 54.2099H279.627ZM298.788 44.9645C300.15 44.9645 301.477 45.2613 302.769 45.855C304.061 46.4312 305.126 47.3566 305.964 48.6312C306.802 49.8884 307.221 51.521 307.221 53.529V67.0959H304.183V54.2361C304.183 51.844 303.624 50.1241 302.507 49.0765C301.389 48.0114 299.958 47.4788 298.212 47.4788C297.059 47.4788 295.942 47.8106 294.859 48.4741C293.794 49.1376 292.912 50.0456 292.214 51.198C291.533 52.3504 291.192 53.6425 291.192 55.0742V67.0959H288.207V45.5931H291.192V49.7313C291.315 49.1201 291.725 48.4479 292.423 47.7146C293.139 46.9637 294.047 46.3177 295.147 45.7764C296.265 45.2351 297.478 44.9645 298.788 44.9645ZM311.998 45.5931H316.477V36.7667H319.436V45.5931H325.303V48.2908H319.436V61.0458C319.436 62.4776 319.698 63.499 320.222 64.1102C320.746 64.7213 321.401 65.0269 322.186 65.0269C322.937 65.0269 323.505 64.8959 323.889 64.634C324.273 64.3721 324.5 64.1975 324.57 64.1102L325.958 66.3888C325.853 66.4761 325.617 66.6332 325.251 66.8602C324.884 67.0698 324.404 67.2618 323.81 67.4364C323.216 67.6285 322.501 67.7245 321.662 67.7245C320.213 67.7245 318.982 67.2618 317.97 66.3364C316.974 65.3935 316.477 63.8919 316.477 61.8315V48.2908H311.998V45.5931ZM337.713 44.9645C338.708 44.9645 339.642 45.078 340.515 45.305C341.406 45.5145 342.183 45.7851 342.846 46.1169C343.51 46.4312 344.007 46.7193 344.339 46.9812L342.899 49.0503C342.532 48.7011 341.895 48.3344 340.987 47.9503C340.079 47.5487 339.057 47.3479 337.922 47.3479C336.525 47.3479 335.329 47.636 334.334 48.2122C333.356 48.7884 332.867 49.6265 332.867 50.7265C332.867 51.7916 333.365 52.6385 334.36 53.2671C335.355 53.8957 336.665 54.4107 338.289 54.8123C339.529 55.1266 340.655 55.5195 341.668 55.9909C342.698 56.4624 343.518 57.1084 344.129 57.9291C344.741 58.7323 345.046 59.8061 345.046 61.1506C345.046 62.303 344.81 63.2982 344.339 64.1364C343.868 64.957 343.222 65.6292 342.401 66.1531C341.598 66.6769 340.681 67.0698 339.651 67.3317C338.621 67.5936 337.538 67.7245 336.403 67.7245C335.233 67.7245 334.151 67.5936 333.155 67.3317C332.16 67.0698 331.305 66.7555 330.589 66.3888C329.89 66.0221 329.358 65.6816 328.991 65.3673L330.484 63.0363C330.938 63.5078 331.68 63.9967 332.71 64.503C333.758 64.9919 334.98 65.2364 336.377 65.2364C338.001 65.2364 339.337 64.861 340.384 64.1102C341.449 63.3594 341.982 62.3728 341.982 61.1506C341.982 60.2601 341.729 59.5442 341.222 59.0029C340.716 58.4616 340.052 58.0338 339.232 57.7195C338.411 57.3878 337.538 57.1084 336.613 56.8814C335.722 56.6544 334.867 56.3838 334.046 56.0695C333.243 55.7378 332.527 55.3274 331.898 54.8385C331.27 54.3496 330.772 53.7647 330.405 53.0837C330.056 52.3853 329.882 51.5734 329.882 50.648C329.882 49.4956 330.239 48.5003 330.955 47.6622C331.671 46.8066 332.623 46.1431 333.81 45.6717C335.015 45.2002 336.316 44.9645 337.713 44.9645ZM377.043 56.6457C377.043 58.9156 376.72 60.8799 376.074 62.5387C375.445 64.1975 374.468 65.4808 373.141 66.3888C371.814 67.2793 370.111 67.7245 368.033 67.7245C366.357 67.7245 364.96 67.4888 363.843 67.0174C362.743 66.5459 361.887 66.0221 361.276 65.4459C360.682 64.8697 360.316 64.4332 360.176 64.1364L361.669 61.6482C361.861 61.98 362.175 62.399 362.612 62.9054C363.048 63.4117 363.686 63.8657 364.524 64.2673C365.379 64.6689 366.471 64.8697 367.798 64.8697C369.387 64.8697 370.644 64.4943 371.569 63.7435C372.495 62.9927 373.149 61.9887 373.533 60.7315C373.918 59.4743 374.11 58.0862 374.11 56.5671V32.5237H377.043V56.6457ZM392.831 67.7245C390.684 67.7245 388.772 67.2269 387.096 66.2316C385.437 65.2189 384.127 63.857 383.167 62.1458C382.224 60.4347 381.753 58.5227 381.753 56.41C381.753 54.2972 382.224 52.3766 383.167 50.648C384.127 48.9019 385.437 47.5225 387.096 46.5098C388.772 45.4796 390.684 44.9645 392.831 44.9645C394.979 44.9645 396.874 45.4796 398.515 46.5098C400.174 47.5225 401.474 48.9019 402.417 50.648C403.36 52.3766 403.832 54.2972 403.832 56.41C403.832 58.5227 403.36 60.4347 402.417 62.1458C401.474 63.857 400.174 65.2189 398.515 66.2316C396.874 67.2269 394.979 67.7245 392.831 67.7245ZM392.831 65.0269C394.455 65.0269 395.87 64.6514 397.074 63.9006C398.297 63.1498 399.239 62.1196 399.903 60.8101C400.584 59.5005 400.924 58.0338 400.924 56.41C400.924 54.7687 400.584 53.2933 399.903 51.9837C399.239 50.6567 398.297 49.609 397.074 48.8408C395.87 48.055 394.455 47.6622 392.831 47.6622C391.19 47.6622 389.758 48.055 388.536 48.8408C387.314 49.609 386.362 50.6567 385.681 51.9837C385 53.2933 384.66 54.7687 384.66 56.41C384.66 58.0338 385 59.5005 385.681 60.8101C386.362 62.1196 387.314 63.1498 388.536 63.9006C389.758 64.6514 391.19 65.0269 392.831 65.0269ZM409.837 67.0959V45.5931H412.796V67.0959H409.837ZM411.356 36.8715C410.727 36.8715 410.186 36.6532 409.732 36.2167C409.295 35.7627 409.077 35.2214 409.077 34.5928C409.077 33.9468 409.304 33.4055 409.758 32.969C410.212 32.515 410.745 32.288 411.356 32.288C411.775 32.288 412.159 32.3928 412.508 32.6023C412.875 32.8118 413.163 33.0912 413.373 33.4404C413.6 33.7722 413.713 34.1563 413.713 34.5928C413.713 35.2214 413.477 35.7627 413.006 36.2167C412.552 36.6532 412.002 36.8715 411.356 36.8715ZM431.227 44.9645C432.589 44.9645 433.916 45.2613 435.208 45.855C436.5 46.4312 437.565 47.3566 438.403 48.6312C439.241 49.8884 439.66 51.521 439.66 53.529V67.0959H436.622V54.2361C436.622 51.844 436.063 50.1241 434.946 49.0765C433.828 48.0114 432.396 47.4788 430.65 47.4788C429.498 47.4788 428.381 47.8106 427.298 48.4741C426.233 49.1376 425.351 50.0456 424.653 51.198C423.972 52.3504 423.631 53.6425 423.631 55.0742V67.0959H420.645V45.5931H423.631V49.7313C423.753 49.1201 424.164 48.4479 424.862 47.7146C425.578 46.9637 426.486 46.3177 427.586 45.7764C428.704 45.2351 429.917 44.9645 431.227 44.9645ZM447.606 56.6981C447.623 58.1997 447.92 59.6053 448.496 60.9149C449.09 62.2244 449.981 63.2808 451.168 64.084C452.355 64.8872 453.848 65.2888 455.647 65.2888C457.113 65.2888 458.336 65.053 459.313 64.5816C460.309 64.0927 461.094 63.534 461.67 62.9054C462.264 62.2593 462.683 61.6831 462.928 61.1768L464.787 63.0101C464.141 64.0054 463.39 64.861 462.535 65.5769C461.697 66.2753 460.701 66.8078 459.549 67.1745C458.414 67.5412 457.061 67.7245 455.489 67.7245C453.202 67.7245 451.246 67.2182 449.623 66.2055C448.016 65.1753 446.785 63.7784 445.93 62.0149C445.092 60.2513 444.672 58.2696 444.672 56.0695C444.672 53.9742 445.092 52.0885 445.93 50.4122C446.768 48.736 447.973 47.409 449.544 46.4312C451.133 45.4534 453.045 44.9645 455.28 44.9645C457.305 44.9645 459.06 45.4097 460.544 46.3002C462.046 47.1907 463.207 48.4304 464.028 50.0194C464.866 51.5908 465.285 53.4242 465.285 55.5195C465.285 55.6766 465.276 55.8774 465.259 56.1219C465.259 56.3663 465.25 56.5584 465.232 56.6981H447.606ZM462.299 54.2099C462.282 53.2671 462.046 52.2718 461.592 51.2242C461.155 50.1591 460.431 49.2598 459.418 48.5265C458.423 47.7757 457.052 47.4003 455.306 47.4003C453.49 47.4003 452.041 47.7669 450.958 48.5003C449.893 49.2162 449.116 50.0979 448.627 51.1456C448.138 52.1932 447.842 53.2147 447.737 54.2099H462.299ZM480.334 67.7245C478.396 67.7245 476.641 67.2793 475.07 66.3888C473.498 65.4808 472.25 64.18 471.324 62.4863C470.399 60.7752 469.936 58.7323 469.936 56.3576C469.936 53.983 470.399 51.9488 471.324 50.2551C472.25 48.5439 473.498 47.2344 475.07 46.3264C476.641 45.4185 478.396 44.9645 480.334 44.9645C481.993 44.9645 483.46 45.2701 484.734 45.8812C486.009 46.4923 487.022 47.1995 487.772 48.0027C488.523 48.7884 488.933 49.4694 489.003 50.0456V31.057H492.041V67.0959H489.082V62.5911C488.96 63.1498 488.514 63.8308 487.746 64.634C486.995 65.4372 485.983 66.1531 484.708 66.7817C483.433 67.4102 481.975 67.7245 480.334 67.7245ZM480.701 65.1054C482.22 65.1054 483.608 64.7475 484.865 64.0316C486.122 63.3157 487.126 62.303 487.877 60.9934C488.628 59.6839 489.003 58.1386 489.003 56.3576C489.003 54.5766 488.628 53.0313 487.877 51.7218C487.126 50.4122 486.122 49.3995 484.865 48.6836C483.608 47.9503 482.22 47.5836 480.701 47.5836C479.339 47.5836 478.064 47.9415 476.877 48.6574C475.707 49.3559 474.755 50.3599 474.022 51.6694C473.289 52.979 472.922 54.5417 472.922 56.3576C472.922 58.1735 473.289 59.7363 474.022 61.0458C474.755 62.3554 475.707 63.3594 476.877 64.0578C478.064 64.7562 479.339 65.1054 480.701 65.1054Z" fill="white"/>
</svg>
