<svg width="689" height="114" viewBox="0 0 689 114" fill="none" xmlns="http://www.w3.org/2000/svg">
<rect x="43.0625" width="602.875" height="114.002" rx="57.001" fill="white" fill-opacity="0.2"/>
<path d="M151.668 67.1057C154.136 67.1057 156.228 66.7749 157.945 66.1132C159.679 65.4516 160.904 64.8078 161.62 64.1819L162.934 66.7838C162.165 67.4992 160.788 68.2234 158.803 68.9566C156.836 69.6898 154.458 70.0564 151.668 70.0564C149.057 70.0564 146.643 69.5914 144.426 68.6615C142.226 67.7137 140.304 66.4083 138.658 64.7452C137.013 63.0642 135.735 61.124 134.823 58.9244C133.911 56.707 133.455 54.3196 133.455 51.7624C133.455 49.2052 133.902 46.8178 134.796 44.6004C135.708 42.365 136.986 40.4069 138.632 38.7259C140.277 37.0449 142.208 35.7306 144.426 34.7828C146.643 33.835 149.057 33.3611 151.668 33.3611C154.458 33.3611 156.836 33.7277 158.803 34.4609C160.788 35.1941 162.165 35.9183 162.934 36.6336L161.62 39.2356C160.904 38.6097 159.679 37.9659 157.945 37.3042C156.228 36.6426 154.136 36.3118 151.668 36.3118C149.594 36.3118 147.653 36.6873 145.847 37.4384C144.041 38.1716 142.449 39.2177 141.073 40.5768C139.696 41.9359 138.614 43.5632 137.827 45.4587C137.058 47.3364 136.673 49.4108 136.673 51.6819C136.673 53.9709 137.058 56.0632 137.827 57.9587C138.614 59.8543 139.696 61.4816 141.073 62.8407C142.449 64.1998 144.041 65.2549 145.847 66.0059C147.653 66.7391 149.594 67.1057 151.668 67.1057ZM171.892 69.4126H168.78V32.5027H171.892V69.4126ZM179.871 69.4126V47.3901H182.902V69.4126H179.871ZM181.426 38.4577C180.783 38.4577 180.228 38.2341 179.763 37.7871C179.316 37.3221 179.093 36.7678 179.093 36.124C179.093 35.4623 179.325 34.908 179.79 34.4609C180.255 33.996 180.8 33.7635 181.426 33.7635C181.856 33.7635 182.249 33.8708 182.607 34.0854C182.982 34.3 183.277 34.5861 183.492 34.9437C183.724 35.2835 183.84 35.6769 183.84 36.124C183.84 36.7678 183.599 37.3221 183.116 37.7871C182.651 38.2341 182.088 38.4577 181.426 38.4577ZM192.148 58.7635C192.165 60.3014 192.469 61.7409 193.06 63.0821C193.668 64.4233 194.58 65.5052 195.796 66.3278C197.012 67.1504 198.541 67.5617 200.383 67.5617C201.885 67.5617 203.136 67.3203 204.138 66.8375C205.157 66.3368 205.962 65.7645 206.552 65.1208C207.16 64.4591 207.589 63.869 207.84 63.3504L209.744 65.2281C209.082 66.2474 208.313 67.1236 207.437 67.8568C206.579 68.5721 205.56 69.1175 204.379 69.4931C203.217 69.8686 201.831 70.0564 200.222 70.0564C197.879 70.0564 195.876 69.5378 194.213 68.5006C192.568 67.4455 191.307 66.0149 190.431 64.2087C189.572 62.4026 189.143 60.3729 189.143 58.1197C189.143 55.9738 189.572 54.0424 190.431 52.3257C191.289 50.609 192.523 49.2499 194.133 48.2484C195.76 47.247 197.718 46.7463 200.007 46.7463C202.081 46.7463 203.879 47.2023 205.399 48.1143C206.937 49.0263 208.126 50.296 208.966 51.9233C209.825 53.5328 210.254 55.4105 210.254 57.5564C210.254 57.7173 210.245 57.923 210.227 58.1733C210.227 58.4237 210.218 58.6204 210.2 58.7635H192.148ZM207.196 56.2152C207.178 55.2495 206.937 54.2302 206.472 53.1572C206.025 52.0664 205.282 51.1454 204.245 50.3944C203.226 49.6254 201.822 49.2409 200.034 49.2409C198.174 49.2409 196.69 49.6165 195.581 50.3675C194.49 51.1007 193.694 52.0038 193.194 53.0768C192.693 54.1497 192.389 55.1959 192.282 56.2152H207.196ZM226.82 46.7463C228.215 46.7463 229.574 47.0503 230.897 47.6583C232.221 48.2484 233.312 49.1962 234.17 50.5017C235.028 51.7892 235.457 53.4612 235.457 55.5178V69.4126H232.346V56.242C232.346 53.7921 231.774 52.0306 230.629 50.9577C229.485 49.8668 228.018 49.3214 226.23 49.3214C225.05 49.3214 223.905 49.6612 222.796 50.3407C221.706 51.0203 220.803 51.9502 220.087 53.1304C219.39 54.3107 219.041 55.634 219.041 57.1004V69.4126H215.983V47.3901H219.041V51.6283C219.166 51.0024 219.587 50.3139 220.302 49.5628C221.035 48.7939 221.965 48.1322 223.092 47.5778C224.236 47.0235 225.479 46.7463 226.82 46.7463ZM240.349 47.3901H244.936V38.3504H247.967V47.3901H253.976V50.153H247.967V63.2162C247.967 64.6826 248.236 65.7288 248.772 66.3547C249.309 66.9806 249.979 67.2935 250.784 67.2935C251.553 67.2935 252.134 67.1594 252.528 66.8911C252.921 66.6229 253.153 66.4441 253.225 66.3547L254.647 68.6883C254.539 68.7778 254.298 68.9387 253.922 69.1712C253.547 69.3858 253.055 69.5825 252.447 69.7613C251.839 69.958 251.106 70.0564 250.248 70.0564C248.763 70.0564 247.503 69.5825 246.465 68.6347C245.446 67.669 244.936 66.1311 244.936 64.021V50.153H240.349V47.3901ZM282.576 33.3611C284.543 33.3611 286.215 33.5936 287.592 34.0585C288.986 34.5235 290.077 35.0153 290.864 35.5339C291.651 36.0346 292.107 36.3565 292.232 36.4995L290.569 39.021C290.301 38.7885 289.827 38.4487 289.147 38.0017C288.486 37.5546 287.627 37.1522 286.572 36.7946C285.517 36.4191 284.265 36.2313 282.817 36.2313C280.51 36.2313 278.695 36.7141 277.372 37.6798C276.048 38.6454 275.387 39.9867 275.387 41.7034C275.387 42.8658 275.735 43.8851 276.433 44.7613C277.13 45.6197 278.078 46.3976 279.276 47.095C280.492 47.7924 281.86 48.4899 283.38 49.1873C284.578 49.7238 285.777 50.3228 286.975 50.9845C288.191 51.6462 289.299 52.4241 290.301 53.3182C291.32 54.2123 292.134 55.2495 292.742 56.4298C293.368 57.61 293.681 58.9781 293.681 60.5338C293.681 61.9466 293.395 63.2341 292.822 64.3965C292.25 65.5589 291.436 66.5693 290.381 67.4276C289.344 68.2681 288.11 68.9208 286.68 69.3858C285.249 69.8328 283.675 70.0564 281.959 70.0564C279.92 70.0564 278.069 69.7971 276.406 69.2785C274.743 68.742 273.402 68.1966 272.382 67.6422C271.363 67.07 270.8 66.7302 270.692 66.6229L272.49 63.9673C272.704 64.1461 273.08 64.4144 273.616 64.772C274.171 65.1118 274.859 65.4695 275.682 65.845C276.504 66.2205 277.452 66.5335 278.525 66.7838C279.616 67.0342 280.796 67.1594 282.066 67.1594C284.82 67.1594 286.903 66.5156 288.316 65.2281C289.746 63.9405 290.462 62.3221 290.462 60.3729C290.462 58.8529 290.006 57.5564 289.094 56.4834C288.182 55.3926 287.01 54.4359 285.58 53.6133C284.149 52.7906 282.656 52.0128 281.1 51.2796C279.455 50.5106 277.962 49.688 276.621 48.8118C275.279 47.9355 274.206 46.9162 273.402 45.7538C272.597 44.5914 272.195 43.1966 272.195 41.5693C272.195 39.9777 272.651 38.565 273.563 37.3311C274.493 36.0972 275.735 35.1315 277.291 34.4341C278.865 33.7188 280.626 33.3611 282.576 33.3611ZM302.595 58.8976C302.595 61.4727 303.159 63.5203 304.285 65.0403C305.43 66.5424 307.147 67.2935 309.436 67.2935C311.742 67.2935 313.459 66.5424 314.586 65.0403C315.712 63.5203 316.276 61.4727 316.276 58.8976V47.3901H319.334V59.4341C319.334 61.4906 318.949 63.3235 318.18 64.933C317.411 66.5245 316.294 67.7763 314.827 68.6883C313.361 69.6004 311.564 70.0564 309.436 70.0564C307.325 70.0564 305.537 69.6004 304.071 68.6883C302.604 67.7763 301.487 66.5245 300.718 64.933C299.949 63.3235 299.564 61.4906 299.564 59.4341V47.3901H302.595V58.8976ZM335.971 67.374C337.544 67.374 338.805 67.1326 339.753 66.6497C340.701 66.149 341.282 65.8003 341.497 65.6036L343.106 67.9641C342.963 68.0714 342.561 68.3039 341.899 68.6615C341.237 69.0013 340.379 69.3142 339.324 69.6004C338.287 69.9044 337.106 70.0564 335.783 70.0564C334.013 70.0564 332.305 69.6182 330.66 68.742C329.014 67.8657 327.655 66.5603 326.582 64.8257C325.527 63.0911 325 60.9451 325 58.3879C325 55.8128 325.527 53.6669 326.582 51.9502C327.655 50.2155 329.014 48.919 330.66 48.0607C332.305 47.1844 334.013 46.7463 335.783 46.7463C337.106 46.7463 338.269 46.9072 339.27 47.2291C340.272 47.551 341.094 47.9087 341.738 48.3021C342.382 48.6955 342.784 48.9816 342.945 49.1605L341.362 51.4942C341.201 51.3511 340.897 51.1186 340.45 50.7967C340.021 50.457 339.431 50.144 338.68 49.8579C337.929 49.5718 337.026 49.4287 335.971 49.4287C334.701 49.4287 333.449 49.7774 332.215 50.4748C330.982 51.1723 329.962 52.1916 329.158 53.5328C328.371 54.8561 327.977 56.4745 327.977 58.3879C327.977 60.3014 328.371 61.9287 329.158 63.2699C329.962 64.6111 330.982 65.6304 332.215 66.3278C333.449 67.0253 334.701 67.374 335.971 67.374ZM357.922 67.374C359.496 67.374 360.757 67.1326 361.705 66.6497C362.652 66.149 363.234 65.8003 363.448 65.6036L365.058 67.9641C364.915 68.0714 364.512 68.3039 363.851 68.6615C363.189 69.0013 362.331 69.3142 361.276 69.6004C360.238 69.9044 359.058 70.0564 357.735 70.0564C355.964 70.0564 354.257 69.6182 352.611 68.742C350.966 67.8657 349.607 66.5603 348.534 64.8257C347.479 63.0911 346.951 60.9451 346.951 58.3879C346.951 55.8128 347.479 53.6669 348.534 51.9502C349.607 50.2155 350.966 48.919 352.611 48.0607C354.257 47.1844 355.964 46.7463 357.735 46.7463C359.058 46.7463 360.22 46.9072 361.222 47.2291C362.223 47.551 363.046 47.9087 363.69 48.3021C364.333 48.6955 364.736 48.9816 364.897 49.1605L363.314 51.4942C363.153 51.3511 362.849 51.1186 362.402 50.7967C361.973 50.457 361.383 50.144 360.632 49.8579C359.881 49.5718 358.978 49.4287 357.922 49.4287C356.653 49.4287 355.401 49.7774 354.167 50.4748C352.933 51.1723 351.914 52.1916 351.109 53.5328C350.322 54.8561 349.929 56.4745 349.929 58.3879C349.929 60.3014 350.322 61.9287 351.109 63.2699C351.914 64.6111 352.933 65.6304 354.167 66.3278C355.401 67.0253 356.653 67.374 357.922 67.374ZM371.586 58.7635C371.603 60.3014 371.907 61.7409 372.498 63.0821C373.106 64.4233 374.018 65.5052 375.234 66.3278C376.45 67.1504 377.979 67.5617 379.821 67.5617C381.323 67.5617 382.574 67.3203 383.576 66.8375C384.595 66.3368 385.4 65.7645 385.99 65.1208C386.598 64.4591 387.027 63.869 387.278 63.3504L389.182 65.2281C388.52 66.2474 387.751 67.1236 386.875 67.8568C386.017 68.5721 384.998 69.1175 383.817 69.4931C382.655 69.8686 381.269 70.0564 379.66 70.0564C377.317 70.0564 375.314 69.5378 373.651 68.5006C372.006 67.4455 370.745 66.0149 369.869 64.2087C369.01 62.4026 368.581 60.3729 368.581 58.1197C368.581 55.9738 369.01 54.0424 369.869 52.3257C370.727 50.609 371.961 49.2499 373.571 48.2484C375.198 47.247 377.156 46.7463 379.445 46.7463C381.519 46.7463 383.317 47.2023 384.837 48.1143C386.375 49.0263 387.564 50.296 388.404 51.9233C389.263 53.5328 389.692 55.4105 389.692 57.5564C389.692 57.7173 389.683 57.923 389.665 58.1733C389.665 58.4237 389.656 58.6204 389.638 58.7635H371.586ZM386.634 56.2152C386.616 55.2495 386.375 54.2302 385.91 53.1572C385.462 52.0664 384.72 51.1454 383.683 50.3944C382.664 49.6254 381.26 49.2409 379.472 49.2409C377.612 49.2409 376.128 49.6165 375.019 50.3675C373.928 51.1007 373.132 52.0038 372.632 53.0768C372.131 54.1497 371.827 55.1959 371.72 56.2152H386.634ZM402.744 46.7463C403.763 46.7463 404.72 46.8625 405.614 47.095C406.526 47.3096 407.322 47.5868 408.002 47.9266C408.681 48.2484 409.191 48.5435 409.531 48.8118L408.055 50.9308C407.68 50.5732 407.027 50.1977 406.097 49.8042C405.167 49.3929 404.121 49.1873 402.959 49.1873C401.528 49.1873 400.303 49.4824 399.284 50.0725C398.282 50.6626 397.782 51.521 397.782 52.6476C397.782 53.7384 398.291 54.6057 399.311 55.2495C400.33 55.8933 401.671 56.4208 403.334 56.8321C404.604 57.154 405.757 57.5564 406.795 58.0392C407.85 58.522 408.69 59.1837 409.316 60.0242C409.942 60.8468 410.255 61.9466 410.255 63.3235C410.255 64.5038 410.013 65.5231 409.531 66.3815C409.048 67.222 408.386 67.9105 407.546 68.4469C406.723 68.9834 405.784 69.3858 404.729 69.654C403.674 69.9223 402.565 70.0564 401.403 70.0564C400.205 70.0564 399.096 69.9223 398.077 69.654C397.057 69.3858 396.181 69.0639 395.448 68.6883C394.733 68.3128 394.187 67.9641 393.812 67.6422L395.341 65.2549C395.806 65.7377 396.566 66.2384 397.621 66.757C398.694 67.2577 399.946 67.5081 401.376 67.5081C403.039 67.5081 404.407 67.1236 405.48 66.3547C406.571 65.5857 407.116 64.5753 407.116 63.3235C407.116 62.4115 406.857 61.6783 406.339 61.124C405.82 60.5696 405.14 60.1315 404.3 59.8096C403.459 59.4698 402.565 59.1837 401.618 58.9512C400.706 58.7188 399.829 58.4416 398.989 58.1197C398.166 57.7799 397.433 57.3597 396.789 56.859C396.145 56.3582 395.636 55.7592 395.26 55.0617C394.903 54.3464 394.724 53.5149 394.724 52.5671C394.724 51.3869 395.09 50.3675 395.824 49.5092C396.557 48.6329 397.531 47.9534 398.747 47.4706C399.981 46.9877 401.314 46.7463 402.744 46.7463ZM423.648 46.7463C424.667 46.7463 425.624 46.8625 426.518 47.095C427.43 47.3096 428.226 47.5868 428.906 47.9266C429.585 48.2484 430.095 48.5435 430.435 48.8118L428.959 50.9308C428.584 50.5732 427.931 50.1977 427.001 49.8042C426.071 49.3929 425.025 49.1873 423.863 49.1873C422.432 49.1873 421.207 49.4824 420.188 50.0725C419.186 50.6626 418.686 51.521 418.686 52.6476C418.686 53.7384 419.195 54.6057 420.215 55.2495C421.234 55.8933 422.575 56.4208 424.238 56.8321C425.508 57.154 426.661 57.5564 427.698 58.0392C428.754 58.522 429.594 59.1837 430.22 60.0242C430.846 60.8468 431.159 61.9466 431.159 63.3235C431.159 64.5038 430.917 65.5231 430.435 66.3815C429.952 67.222 429.29 67.9105 428.45 68.4469C427.627 68.9834 426.688 69.3858 425.633 69.654C424.578 69.9223 423.469 70.0564 422.307 70.0564C421.109 70.0564 420 69.9223 418.981 69.654C417.961 69.3858 417.085 69.0639 416.352 68.6883C415.637 68.3128 415.091 67.9641 414.716 67.6422L416.245 65.2549C416.71 65.7377 417.47 66.2384 418.525 66.757C419.598 67.2577 420.849 67.5081 422.28 67.5081C423.943 67.5081 425.311 67.1236 426.384 66.3547C427.475 65.5857 428.02 64.5753 428.02 63.3235C428.02 62.4115 427.761 61.6783 427.242 61.124C426.724 60.5696 426.044 60.1315 425.204 59.8096C424.363 59.4698 423.469 59.1837 422.521 58.9512C421.609 58.7188 420.733 58.4416 419.893 58.1197C419.07 57.7799 418.337 57.3597 417.693 56.859C417.049 56.3582 416.54 55.7592 416.164 55.0617C415.806 54.3464 415.628 53.5149 415.628 52.5671C415.628 51.3869 415.994 50.3675 416.727 49.5092C417.461 48.6329 418.435 47.9534 419.651 47.4706C420.885 46.9877 422.217 46.7463 423.648 46.7463ZM440.689 70.0564C439.849 70.0564 439.133 69.7613 438.543 69.1712C437.971 68.5811 437.685 67.8747 437.685 67.0521C437.685 66.1937 437.971 65.4695 438.543 64.8793C439.133 64.2892 439.849 63.9941 440.689 63.9941C441.53 63.9941 442.245 64.2892 442.835 64.8793C443.425 65.4695 443.72 66.1937 443.72 67.0521C443.72 67.8747 443.425 68.5811 442.835 69.1712C442.245 69.7613 441.53 70.0564 440.689 70.0564ZM440.689 52.3793C439.849 52.3793 439.133 52.0843 438.543 51.4942C437.971 50.904 437.685 50.1977 437.685 49.3751C437.685 48.5167 437.971 47.7924 438.543 47.2023C439.133 46.6122 439.849 46.3171 440.689 46.3171C441.53 46.3171 442.245 46.6122 442.835 47.2023C443.425 47.7924 443.72 48.5167 443.72 49.3751C443.72 50.1977 443.425 50.904 442.835 51.4942C442.245 52.0843 441.53 52.3793 440.689 52.3793ZM474.601 70.0564C472.419 70.0564 470.497 69.6004 468.834 68.6883C467.171 67.7584 465.865 66.5156 464.918 64.9598C463.97 63.404 463.496 61.6783 463.496 59.7828C463.496 57.9766 463.809 56.4477 464.435 55.1959C465.079 53.9441 465.919 52.9248 466.956 52.1379C467.993 51.3332 469.12 50.7252 470.336 50.3139C469.46 49.9562 468.619 49.4376 467.815 48.7581C467.01 48.0786 466.339 47.2113 465.803 46.1562C465.284 45.0832 465.025 43.7957 465.025 42.2935C465.025 40.541 465.445 38.9942 466.286 37.653C467.126 36.3118 468.271 35.2656 469.719 34.5145C471.168 33.7456 472.786 33.3611 474.574 33.3611C476.38 33.3611 477.999 33.7456 479.429 34.5145C480.86 35.2656 481.987 36.3118 482.809 37.653C483.65 38.9942 484.07 40.541 484.07 42.2935C484.07 44.5467 483.534 46.2992 482.461 47.551C481.405 48.8028 480.189 49.7238 478.812 50.3139C480.028 50.7252 481.155 51.3332 482.192 52.1379C483.229 52.9248 484.07 53.9441 484.714 55.1959C485.358 56.4477 485.679 57.9766 485.679 59.7828C485.679 61.6783 485.206 63.404 484.258 64.9598C483.328 66.5156 482.031 67.7584 480.368 68.6883C478.705 69.6004 476.783 70.0564 474.601 70.0564ZM474.574 67.2399C476.041 67.2399 477.364 66.9001 478.544 66.2205C479.742 65.541 480.69 64.62 481.388 63.4577C482.103 62.2953 482.461 60.9899 482.461 59.5414C482.461 58.075 482.103 56.7606 481.388 55.5982C480.69 54.4359 479.742 53.5149 478.544 52.8354C477.364 52.1558 476.041 51.816 474.574 51.816C473.108 51.816 471.776 52.1558 470.578 52.8354C469.379 53.5149 468.432 54.4359 467.734 55.5982C467.037 56.7606 466.688 58.075 466.688 59.5414C466.688 60.9899 467.037 62.2953 467.734 63.4577C468.432 64.62 469.379 65.541 470.578 66.2205C471.776 66.9001 473.108 67.2399 474.574 67.2399ZM474.601 49.1873C475.799 49.1873 476.89 48.8922 477.874 48.3021C478.875 47.6941 479.671 46.8894 480.261 45.8879C480.851 44.8865 481.146 43.7867 481.146 42.5886C481.146 41.3726 480.851 40.2728 480.261 39.2892C479.671 38.2878 478.875 37.492 477.874 36.9019C476.89 36.3118 475.79 36.0167 474.574 36.0167C473.376 36.0167 472.267 36.3118 471.248 36.9019C470.247 37.492 469.451 38.2878 468.861 39.2892C468.271 40.2728 467.976 41.3726 467.976 42.5886C467.976 43.7867 468.271 44.8865 468.861 45.8879C469.451 46.8894 470.247 47.6941 471.248 48.3021C472.267 48.8922 473.385 49.1873 474.601 49.1873ZM498.044 69.4126L510.034 54.6326C509.569 55.1512 508.764 55.6519 507.62 56.1347C506.475 56.5997 505.098 56.8321 503.489 56.8321C501.432 56.8321 499.537 56.3314 497.802 55.33C496.085 54.3107 494.708 52.9248 493.671 51.1723C492.634 49.4019 492.115 47.3901 492.115 45.1369C492.115 42.8658 492.67 40.845 493.779 39.0746C494.887 37.3042 496.354 35.9094 498.178 34.8901C500.002 33.8708 502.022 33.3611 504.24 33.3611C506.493 33.3611 508.523 33.8797 510.329 34.9169C512.135 35.9362 513.566 37.3668 514.621 39.2088C515.676 41.0507 516.203 43.1787 516.203 45.5929C516.203 48.0607 515.765 50.1708 514.889 51.9233C514.031 53.658 512.994 55.2853 511.777 56.8053L501.745 69.4126H498.044ZM504.106 54.1766C505.787 54.1766 507.307 53.7742 508.666 52.9695C510.043 52.1648 511.143 51.0739 511.965 49.6969C512.788 48.32 513.199 46.8 513.199 45.1369C513.199 43.4559 512.788 41.9359 511.965 40.5768C511.143 39.1998 510.043 38.1 508.666 37.2774C507.307 36.4548 505.787 36.0435 504.106 36.0435C502.443 36.0435 500.923 36.4548 499.546 37.2774C498.187 38.1 497.096 39.1998 496.273 40.5768C495.468 41.9359 495.066 43.4559 495.066 45.1369C495.066 46.8 495.468 48.32 496.273 49.6969C497.096 51.0739 498.187 52.1648 499.546 52.9695C500.923 53.7742 502.443 54.1766 504.106 54.1766ZM546.726 34.0049H549.221L528.298 69.4126H525.803L546.726 34.0049ZM521.351 41.8107C521.351 40.5589 521.655 39.4412 522.263 38.4577C522.889 37.4741 523.72 36.7052 524.757 36.1508C525.812 35.5786 526.984 35.2924 528.271 35.2924C529.523 35.2924 530.659 35.5786 531.678 36.1508C532.715 36.7052 533.547 37.4741 534.173 38.4577C534.798 39.4412 535.111 40.5589 535.111 41.8107C535.111 43.0267 534.807 44.1265 534.199 45.11C533.609 46.0936 532.796 46.8715 531.758 47.4437C530.739 48.016 529.577 48.3021 528.271 48.3021C526.912 48.3021 525.714 48.016 524.677 47.4437C523.64 46.8715 522.826 46.0936 522.236 45.11C521.646 44.1265 521.351 43.0267 521.351 41.8107ZM523.765 41.8107C523.765 43.1877 524.167 44.2606 524.972 45.0296C525.795 45.7985 526.876 46.183 528.218 46.183C529.469 46.183 530.525 45.8075 531.383 45.0564C532.241 44.3053 532.67 43.2234 532.67 41.8107C532.67 40.4695 532.232 39.4055 531.356 38.6186C530.498 37.8139 529.452 37.4115 528.218 37.4115C526.948 37.4115 525.884 37.8139 525.026 38.6186C524.185 39.4055 523.765 40.4695 523.765 41.8107ZM539.967 61.6336C539.967 60.364 540.271 59.2463 540.879 58.2806C541.487 57.2971 542.309 56.5281 543.346 55.9738C544.401 55.4015 545.573 55.1154 546.86 55.1154C548.112 55.1154 549.248 55.4015 550.267 55.9738C551.304 56.5281 552.136 57.2971 552.762 58.2806C553.388 59.2463 553.7 60.364 553.7 61.6336C553.7 62.8497 553.405 63.9494 552.815 64.933C552.225 65.9165 551.411 66.6944 550.374 67.2667C549.337 67.8389 548.166 68.125 546.86 68.125C545.501 68.125 544.303 67.8389 543.266 67.2667C542.229 66.6944 541.415 65.9165 540.825 64.933C540.253 63.9494 539.967 62.8497 539.967 61.6336ZM542.381 61.6336C542.381 63.0106 542.783 64.0836 543.588 64.8525C544.41 65.6215 545.492 66.0059 546.834 66.0059C548.085 66.0059 549.14 65.6304 549.999 64.8793C550.857 64.1104 551.286 63.0285 551.286 61.6336C551.286 60.2924 550.848 59.2195 549.972 58.4148C549.114 57.61 548.067 57.2077 546.834 57.2077C545.546 57.2077 544.482 57.61 543.641 58.4148C542.801 59.2195 542.381 60.2924 542.381 61.6336Z" fill="white"/>
</svg>
