<svg width="846" height="140" viewBox="0 0 846 140" fill="none" xmlns="http://www.w3.org/2000/svg">
<rect x="52.875" width="740.25" height="139.979" rx="69.9897" fill="white" fill-opacity="0.2"/>
<path d="M174.474 65.0363C174.364 64.8387 174.134 64.3227 173.782 63.4883C173.431 62.632 173.058 61.6 172.662 60.3923C172.267 59.1846 171.916 57.9001 171.608 56.5388C171.323 55.1774 171.18 53.8819 171.18 52.6523C171.18 50.4126 171.641 48.3486 172.564 46.4602C173.508 44.5499 174.957 43.0239 176.911 41.8821C178.865 40.7183 181.391 40.1365 184.487 40.1365C186.99 40.1365 189.153 40.5976 190.975 41.5198C192.819 42.4201 194.324 43.5289 195.487 44.8464C196.651 46.1419 197.452 47.3825 197.892 48.5682L194.763 50.2809C194.411 49.2928 193.786 48.2827 192.885 47.2507C192.007 46.1968 190.876 45.2965 189.493 44.5499C188.11 43.8034 186.463 43.4301 184.552 43.4301C181.544 43.4301 179.173 44.2425 177.438 45.8674C175.726 47.4703 174.869 49.7758 174.869 52.784C174.869 53.7941 175.001 54.9359 175.264 56.2094C175.55 57.461 175.879 58.7016 176.252 59.9312C176.648 61.1389 177.032 62.2148 177.405 63.159C177.779 64.0812 178.042 64.707 178.196 65.0363C178.876 66.7929 179.338 68.2202 179.579 69.318C179.843 70.394 179.974 71.5138 179.974 72.6776C179.974 73.7535 179.854 74.7416 179.612 75.6418C179.37 76.5201 179.217 77.08 179.151 77.3216C180.161 77.4314 181.127 77.7278 182.049 78.2109C182.993 78.6939 183.938 79.2319 184.882 79.8247C185.848 80.4176 186.836 80.9336 187.846 81.3727C188.856 81.8119 189.943 82.0315 191.107 82.0315C192.336 82.0315 193.357 81.768 194.17 81.241C194.982 80.6921 195.608 80.0553 196.047 79.3307C196.508 78.5841 196.783 77.8925 196.871 77.2557L200.065 78.5073C199.78 79.4734 199.253 80.4835 198.484 81.5374C197.738 82.5694 196.772 83.4477 195.586 84.1723C194.4 84.8969 192.973 85.2592 191.304 85.2592C189.68 85.2592 188.252 84.9957 187.023 84.4688C185.793 83.9198 184.64 83.294 183.564 82.5914C182.51 81.8887 181.445 81.2739 180.37 80.7469C179.294 80.22 178.075 79.9565 176.714 79.9565C175.616 79.9565 174.661 80.2419 173.848 80.8128C173.036 81.3837 172.399 82.0315 171.938 82.7561C171.477 83.4587 171.213 84.0296 171.147 84.4688H167.953C168.04 83.327 168.469 82.1852 169.237 81.0434C170.028 79.9016 171.016 78.9574 172.201 78.2109C173.387 77.4423 174.617 77.0581 175.89 77.0581C176 76.7726 176.154 76.2457 176.351 75.4771C176.571 74.6867 176.681 73.7754 176.681 72.7434C176.681 71.5138 176.494 70.2952 176.121 69.0875C175.747 67.8798 175.199 66.5294 174.474 65.0363ZM168.084 64.18H191.535V66.9796H168.084V64.18ZM221.285 43.6277C219.331 43.6277 217.607 44.001 216.114 44.7476C214.643 45.4941 213.413 46.3724 212.425 47.3825C211.459 48.3925 210.724 49.3037 210.219 50.1162C209.714 50.9286 209.439 51.3787 209.395 51.4666L206.036 50.0503C206.08 49.8966 206.288 49.4684 206.661 48.7658C207.035 48.0631 207.606 47.2397 208.374 46.2956C209.143 45.3294 210.12 44.3853 211.305 43.463C212.491 42.5189 213.907 41.7394 215.554 41.1246C217.223 40.5098 219.133 40.2023 221.285 40.2023C223.371 40.2023 225.205 40.4878 226.786 41.0587C228.366 41.6076 229.706 42.431 230.804 43.5289C231.902 44.6048 232.736 45.9442 233.307 47.5471C233.878 49.15 234.163 50.9945 234.163 53.0804C234.163 54.9029 233.691 56.8242 232.747 58.8443C231.825 60.8424 230.617 62.8406 229.124 64.8387C227.631 66.8149 226.028 68.7032 224.315 70.5038C222.603 72.3043 220.934 73.9401 219.309 75.4113C217.684 76.8824 216.279 78.112 215.093 79.1001C213.907 80.0663 213.117 80.703 212.722 81.0104H233.801V84.4688H206.727V81.3069C207.562 80.6262 208.703 79.693 210.153 78.5073C211.624 77.2996 213.249 75.9053 215.027 74.3244C216.828 72.7434 218.617 71.0527 220.396 69.2522C222.174 67.4517 223.821 65.6182 225.336 63.7518C226.851 61.8635 228.059 60.008 228.959 58.1856C229.882 56.3631 230.343 54.6614 230.343 53.0804C230.343 49.5672 229.552 47.119 227.971 45.7356C226.412 44.3304 224.184 43.6277 221.285 43.6277ZM248.67 85.2592C247.638 85.2592 246.76 84.8969 246.035 84.1723C245.333 83.4477 244.981 82.5804 244.981 81.5704C244.981 80.5164 245.333 79.6271 246.035 78.9025C246.76 78.1779 247.638 77.8156 248.67 77.8156C249.702 77.8156 250.58 78.1779 251.305 78.9025C252.03 79.6271 252.392 80.5164 252.392 81.5704C252.392 82.5804 252.03 83.4477 251.305 84.1723C250.58 84.8969 249.702 85.2592 248.67 85.2592ZM276.93 43.6277C274.975 43.6277 273.252 44.001 271.759 44.7476C270.287 45.4941 269.058 46.3724 268.07 47.3825C267.104 48.3925 266.368 49.3037 265.863 50.1162C265.358 50.9286 265.083 51.3787 265.04 51.4666L261.68 50.0503C261.724 49.8966 261.933 49.4684 262.306 48.7658C262.679 48.0631 263.25 47.2397 264.019 46.2956C264.787 45.3294 265.764 44.3853 266.95 43.463C268.136 42.5189 269.552 41.7394 271.199 41.1246C272.867 40.5098 274.778 40.2023 276.93 40.2023C279.016 40.2023 280.849 40.4878 282.43 41.0587C284.011 41.6076 285.35 42.431 286.448 43.5289C287.546 44.6048 288.38 45.9442 288.951 47.5471C289.522 49.15 289.808 50.9945 289.808 53.0804C289.808 54.9029 289.336 56.8242 288.391 58.8443C287.469 60.8424 286.261 62.8406 284.768 64.8387C283.275 66.8149 281.672 68.7032 279.96 70.5038C278.247 72.3043 276.578 73.9401 274.953 75.4113C273.329 76.8824 271.923 78.112 270.738 79.1001C269.552 80.0663 268.761 80.703 268.366 81.0104H289.445V84.4688H262.372V81.3069C263.206 80.6262 264.348 79.693 265.797 78.5073C267.268 77.2996 268.893 75.9053 270.672 74.3244C272.472 72.7434 274.262 71.0527 276.04 69.2522C277.819 67.4517 279.466 65.6182 280.981 63.7518C282.496 61.8635 283.703 60.008 284.604 58.1856C285.526 56.3631 285.987 54.6614 285.987 53.0804C285.987 49.5672 285.197 47.119 283.616 45.7356C282.057 44.3304 279.828 43.6277 276.93 43.6277ZM314.097 57.428H318.971L304.479 70.3061L319.729 84.4688H314.821L301.317 71.9859V84.4688H297.563V39.1484H301.317V68.7581L314.097 57.428ZM376.693 40.9928V84.4688H373.004V50.4126L373.235 46.7567L372.28 50.6432L360.324 82.4926H356.668L344.712 50.6432L343.79 46.7567L344.02 50.4126V84.4688H340.331V40.9928H344.877L358.15 77.4863L358.512 79.1331L358.842 77.4863L372.181 40.9928H376.693ZM398.248 85.2592C395.547 85.2592 393.143 84.6334 391.035 83.3819C388.949 82.1083 387.302 80.3956 386.094 78.2438C384.909 76.0919 384.316 73.6876 384.316 71.0307C384.316 68.3739 384.909 65.9585 386.094 63.7847C387.302 61.589 388.949 59.8543 391.035 58.5808C393.143 57.2853 395.547 56.6376 398.248 56.6376C400.949 56.6376 403.331 57.2853 405.395 58.5808C407.481 59.8543 409.117 61.589 410.303 63.7847C411.488 65.9585 412.081 68.3739 412.081 71.0307C412.081 73.6876 411.488 76.0919 410.303 78.2438C409.117 80.3956 407.481 82.1083 405.395 83.3819C403.331 84.6334 400.949 85.2592 398.248 85.2592ZM398.248 81.8668C400.29 81.8668 402.068 81.3947 403.584 80.4505C405.121 79.5063 406.306 78.2109 407.141 76.564C407.997 74.9172 408.425 73.0728 408.425 71.0307C408.425 68.9667 407.997 67.1113 407.141 65.4645C406.306 63.7957 405.121 62.4783 403.584 61.5121C402.068 60.5241 400.29 60.03 398.248 60.03C396.184 60.03 394.383 60.5241 392.846 61.5121C391.309 62.4783 390.113 63.7957 389.256 65.4645C388.4 67.1113 387.972 68.9667 387.972 71.0307C387.972 73.0728 388.4 74.9172 389.256 76.564C390.113 78.2109 391.309 79.5063 392.846 80.4505C394.383 81.3947 396.184 81.8668 398.248 81.8668ZM432.379 56.6376C434.092 56.6376 435.761 57.0108 437.385 57.7574C439.01 58.482 440.35 59.6457 441.404 61.2487C442.458 62.8296 442.985 64.8826 442.985 67.4077V84.4688H439.164V68.297C439.164 65.2888 438.461 63.126 437.056 61.8086C435.651 60.4692 433.85 59.7995 431.655 59.7995C430.205 59.7995 428.8 60.2166 427.439 61.051C426.099 61.8854 424.99 63.0272 424.112 64.4764C423.256 65.9256 422.828 67.5505 422.828 69.351V84.4688H419.073V57.428H422.828V62.632C422.981 61.8635 423.497 61.0181 424.376 60.0959C425.276 59.1517 426.418 58.3393 427.801 57.6586C429.206 56.9779 430.732 56.6376 432.379 56.6376ZM448.991 57.428H454.623V46.3285H458.345V57.428H465.723V60.8205H458.345V76.8605C458.345 78.661 458.675 79.9455 459.333 80.714C459.992 81.4825 460.816 81.8668 461.804 81.8668C462.748 81.8668 463.461 81.7021 463.944 81.3727C464.428 81.0434 464.713 80.8238 464.801 80.714L466.546 83.5795C466.415 83.6893 466.118 83.8869 465.657 84.1723C465.196 84.4358 464.592 84.6773 463.846 84.8969C463.099 85.1385 462.199 85.2592 461.145 85.2592C459.322 85.2592 457.774 84.6773 456.501 83.5136C455.249 82.3279 454.623 80.4395 454.623 77.8486V60.8205H448.991V57.428ZM485.841 56.6376C487.532 56.6376 489.189 57.0108 490.814 57.7574C492.439 58.482 493.779 59.6457 494.833 61.2487C495.887 62.8296 496.413 64.8826 496.413 67.4077V84.4688H492.593V68.297C492.593 65.2888 491.89 63.126 490.485 61.8086C489.102 60.4692 487.323 59.7995 485.149 59.7995C483.678 59.7995 482.262 60.2166 480.9 61.051C479.561 61.8854 478.452 63.0272 477.574 64.4764C476.696 65.9256 476.256 67.5505 476.256 69.351V84.4688H472.436V39.1484H476.256V62.632C476.41 61.8635 476.926 61.0181 477.804 60.0959C478.705 59.1517 479.847 58.3393 481.23 57.6586C482.635 56.9779 484.172 56.6376 485.841 56.6376ZM509.096 84.4688H505.275V39.1484H509.096V84.4688ZM528.246 80.8458L538.193 57.428H542.079L523.964 98.1703H520.078L526.204 84.4688L515.104 57.428H519.024L528.246 80.8458ZM563.171 40.9928H587.939V44.4511H566.827V60.9522H587.412V64.3776H566.827V81.0104H587.939V84.4688H563.171V40.9928ZM619.262 84.4688V78.8037C619.108 79.3966 618.592 80.209 617.714 81.241C616.857 82.273 615.661 83.2062 614.124 84.0406C612.609 84.853 610.808 85.2592 608.722 85.2592C606.285 85.2592 604.034 84.6993 601.97 83.5795C599.928 82.4377 598.281 80.8018 597.03 78.672C595.8 76.5201 595.185 73.9511 595.185 70.9649C595.185 67.9786 595.8 65.4206 597.03 63.2907C598.281 61.1389 599.928 59.492 601.97 58.3503C604.034 57.2085 606.285 56.6376 608.722 56.6376C610.808 56.6376 612.609 57.0328 614.124 57.8233C615.639 58.5918 616.835 59.4811 617.714 60.4911C618.614 61.5012 619.119 62.3465 619.229 63.0272V57.428H622.918V84.4688H619.262ZM598.907 70.9649C598.907 73.2484 599.401 75.2136 600.389 76.8605C601.377 78.5073 602.651 79.7698 604.21 80.6481C605.791 81.5264 607.449 81.9656 609.183 81.9656C611.094 81.9656 612.795 81.5155 614.288 80.6152C615.782 79.7149 616.956 78.4414 617.813 76.7946C618.691 75.1478 619.13 73.2045 619.13 70.9649C619.13 68.7252 618.691 66.782 617.813 65.1351C616.956 63.4883 615.782 62.2148 614.288 61.3145C612.795 60.3923 611.094 59.9312 609.183 59.9312C607.449 59.9312 605.791 60.3813 604.21 61.2816C602.651 62.1599 601.377 63.4224 600.389 65.0693C599.401 66.7161 598.907 68.6813 598.907 70.9649ZM635.21 84.4688H631.521V57.428H635.21V62.3026H635.045C635.133 61.7317 635.528 61.0071 636.231 60.1288C636.955 59.2286 637.932 58.4271 639.162 57.7245C640.392 56.9999 641.841 56.6376 643.51 56.6376C644.783 56.6376 645.87 56.8022 646.77 57.1316C647.693 57.439 648.329 57.7574 648.681 58.0868L647.034 61.2816C646.748 60.9961 646.21 60.7107 645.42 60.4252C644.651 60.1398 643.718 59.9971 642.62 59.9971C641.105 59.9971 639.788 60.5021 638.668 61.5121C637.57 62.5222 636.714 63.7299 636.099 65.1351C635.506 66.5185 635.21 67.792 635.21 68.9557V84.4688ZM666.343 56.6376C668.055 56.6376 669.724 57.0108 671.349 57.7574C672.974 58.482 674.313 59.6457 675.367 61.2487C676.421 62.8296 676.948 64.8826 676.948 67.4077V84.4688H673.128V68.297C673.128 65.2888 672.425 63.126 671.02 61.8086C669.614 60.4692 667.814 59.7995 665.618 59.7995C664.169 59.7995 662.764 60.2166 661.402 61.051C660.063 61.8854 658.954 63.0272 658.076 64.4764C657.219 65.9256 656.791 67.5505 656.791 69.351V84.4688H653.036V57.428H656.791V62.632C656.945 61.8635 657.461 61.0181 658.339 60.0959C659.239 59.1517 660.381 58.3393 661.765 57.6586C663.17 56.9779 664.696 56.6376 666.343 56.6376Z" fill="white"/>
</svg>
