<svg width="660" height="109" viewBox="0 0 660 109" fill="none" xmlns="http://www.w3.org/2000/svg">
<rect x="68.9961" width="522.008" height="108.941" rx="54.4704" fill="white" fill-opacity="0.2"/>
<path d="M175.955 32.7003H186.902C188.666 32.7003 190.285 33.0686 191.758 33.8052C193.248 34.5418 194.439 35.6209 195.33 37.0427C196.237 38.4645 196.691 40.2204 196.691 42.3102C196.691 44.3829 196.255 46.1131 195.381 47.5006C194.524 48.871 193.488 49.9074 192.272 50.6097C191.073 51.2949 189.951 51.6546 188.906 51.6889L197.385 66.6177H194.096L185.977 51.8944H178.833V66.6177H175.955V32.7003ZM178.833 49.5562H185.925C188.238 49.5562 190.113 48.9738 191.552 47.8089C193.008 46.6441 193.736 44.8283 193.736 42.3616C193.736 39.8777 193.017 38.0791 191.578 36.9657C190.139 35.8351 188.255 35.2698 185.925 35.2698H178.833V49.5562ZM204.611 56.4168C204.628 57.8899 204.919 59.2689 205.485 60.5537C206.067 61.8384 206.941 62.8748 208.106 63.6628C209.27 64.4507 210.735 64.8447 212.499 64.8447C213.938 64.8447 215.137 64.6135 216.097 64.151C217.073 63.6713 217.844 63.1232 218.409 62.5065C218.992 61.8727 219.403 61.3074 219.643 60.8106L221.467 62.6093C220.833 63.5857 220.097 64.425 219.257 65.1274C218.435 65.8126 217.459 66.335 216.328 66.6948C215.215 67.0545 213.887 67.2344 212.345 67.2344C210.101 67.2344 208.183 66.7376 206.59 65.744C205.014 64.7334 203.806 63.363 202.967 61.6328C202.144 59.9027 201.733 57.9585 201.733 55.8001C201.733 53.7445 202.144 51.8944 202.967 50.25C203.789 48.6055 204.971 47.3036 206.512 46.3443C208.071 45.385 209.947 44.9054 212.14 44.9054C214.127 44.9054 215.848 45.3422 217.304 46.2158C218.778 47.0895 219.917 48.3057 220.722 49.8645C221.544 51.4062 221.955 53.2049 221.955 55.2605C221.955 55.4147 221.947 55.6117 221.929 55.8515C221.929 56.0913 221.921 56.2797 221.904 56.4168H204.611ZM219.026 53.9757C219.009 53.0507 218.778 52.0743 218.332 51.0465C217.904 50.0016 217.193 49.1194 216.199 48.3999C215.223 47.6633 213.878 47.295 212.165 47.295C210.384 47.295 208.962 47.6548 207.9 48.3742C206.855 49.0766 206.093 49.9416 205.613 50.9694C205.134 51.9972 204.842 52.9993 204.74 53.9757H219.026ZM225.491 45.5221H229.884V36.8629H232.788V45.5221H238.544V48.1687H232.788V60.6821C232.788 62.0868 233.045 63.0889 233.559 63.6884C234.073 64.288 234.715 64.5878 235.486 64.5878C236.223 64.5878 236.779 64.4593 237.156 64.2023C237.533 63.9454 237.756 63.7741 237.824 63.6884L239.186 65.9239C239.083 66.0096 238.852 66.1637 238.492 66.3864C238.133 66.592 237.661 66.7804 237.079 66.9517C236.497 67.1401 235.794 67.2344 234.972 67.2344C233.55 67.2344 232.343 66.7804 231.349 65.8725C230.373 64.9475 229.884 63.4743 229.884 61.453V48.1687H225.491V45.5221ZM244.86 56.4168C244.877 57.8899 245.168 59.2689 245.733 60.5537C246.316 61.8384 247.19 62.8748 248.354 63.6628C249.519 64.4507 250.984 64.8447 252.748 64.8447C254.187 64.8447 255.386 64.6135 256.345 64.151C257.322 63.6713 258.093 63.1232 258.658 62.5065C259.24 61.8727 259.652 61.3074 259.891 60.8106L261.716 62.6093C261.082 63.5857 260.345 64.425 259.506 65.1274C258.684 65.8126 257.707 66.335 256.577 66.6948C255.463 67.0545 254.136 67.2344 252.594 67.2344C250.35 67.2344 248.431 66.7376 246.838 65.744C245.262 64.7334 244.055 63.363 243.215 61.6328C242.393 59.9027 241.982 57.9585 241.982 55.8001C241.982 53.7445 242.393 51.8944 243.215 50.25C244.038 48.6055 245.22 47.3036 246.761 46.3443C248.32 45.385 250.196 44.9054 252.388 44.9054C254.376 44.9054 256.097 45.3422 257.553 46.2158C259.026 47.0895 260.165 48.3057 260.971 49.8645C261.793 51.4062 262.204 53.2049 262.204 55.2605C262.204 55.4147 262.195 55.6117 262.178 55.8515C262.178 56.0913 262.17 56.2797 262.153 56.4168H244.86ZM259.275 53.9757C259.258 53.0507 259.026 52.0743 258.581 51.0465C258.153 50.0016 257.442 49.1194 256.448 48.3999C255.472 47.6633 254.127 47.295 252.414 47.295C250.633 47.295 249.211 47.6548 248.149 48.3742C247.104 49.0766 246.342 49.9416 245.862 50.9694C245.382 51.9972 245.091 52.9993 244.988 53.9757H259.275ZM278.073 44.9054C279.409 44.9054 280.711 45.1966 281.979 45.779C283.246 46.3443 284.291 47.2522 285.113 48.5027C285.936 49.7361 286.347 51.3377 286.347 53.3077V66.6177H283.366V54.0014C283.366 51.6546 282.818 49.9673 281.722 48.9395C280.625 47.8946 279.221 47.3721 277.508 47.3721C276.377 47.3721 275.281 47.6976 274.219 48.3485C273.174 48.9995 272.309 49.8902 271.624 51.0208C270.956 52.1514 270.621 53.419 270.621 54.8237V66.6177H267.692V45.5221H270.621V49.5819C270.741 48.9823 271.144 48.3228 271.829 47.6034C272.531 46.8668 273.422 46.233 274.501 45.702C275.598 45.1709 276.788 44.9054 278.073 44.9054ZM291.033 45.5221H295.427V36.8629H298.33V45.5221H304.086V48.1687H298.33V60.6821C298.33 62.0868 298.587 63.0889 299.101 63.6884C299.615 64.288 300.257 64.5878 301.028 64.5878C301.765 64.5878 302.322 64.4593 302.698 64.2023C303.075 63.9454 303.298 63.7741 303.367 63.6884L304.728 65.9239C304.626 66.0096 304.394 66.1637 304.035 66.3864C303.675 66.592 303.204 66.7804 302.621 66.9517C302.039 67.1401 301.337 67.2344 300.514 67.2344C299.093 67.2344 297.885 66.7804 296.891 65.8725C295.915 64.9475 295.427 63.4743 295.427 61.453V48.1687H291.033V45.5221ZM309.683 66.6177V45.5221H312.586V66.6177H309.683ZM311.173 36.9657C310.556 36.9657 310.025 36.7515 309.58 36.3233C309.152 35.8779 308.938 35.3469 308.938 34.7302C308.938 34.0964 309.16 33.5653 309.606 33.1371C310.051 32.6917 310.573 32.469 311.173 32.469C311.584 32.469 311.961 32.5718 312.304 32.7774C312.663 32.9829 312.946 33.257 313.152 33.5996C313.374 33.9251 313.486 34.3019 313.486 34.7302C313.486 35.3469 313.254 35.8779 312.792 36.3233C312.346 36.7515 311.807 36.9657 311.173 36.9657ZM329.434 67.2344C327.327 67.2344 325.451 66.7462 323.807 65.7697C322.18 64.7762 320.895 63.4401 319.953 61.7613C319.028 60.0826 318.565 58.2068 318.565 56.1341C318.565 54.0614 319.028 52.1771 319.953 50.4812C320.895 48.7682 322.18 47.4149 323.807 46.4214C325.451 45.4107 327.327 44.9054 329.434 44.9054C331.541 44.9054 333.4 45.4107 335.01 46.4214C336.637 47.4149 337.913 48.7682 338.838 50.4812C339.764 52.1771 340.226 54.0614 340.226 56.1341C340.226 58.2068 339.764 60.0826 338.838 61.7613C337.913 63.4401 336.637 64.7762 335.01 65.7697C333.4 66.7462 331.541 67.2344 329.434 67.2344ZM329.434 64.5878C331.027 64.5878 332.415 64.2195 333.597 63.4829C334.796 62.7463 335.721 61.7356 336.372 60.4509C337.04 59.1661 337.374 57.7272 337.374 56.1341C337.374 54.5239 337.04 53.0764 336.372 51.7917C335.721 50.4898 334.796 49.462 333.597 48.7083C332.415 47.9374 331.027 47.552 329.434 47.552C327.824 47.552 326.419 47.9374 325.22 48.7083C324.021 49.462 323.087 50.4898 322.419 51.7917C321.751 53.0764 321.417 54.5239 321.417 56.1341C321.417 57.7272 321.751 59.1661 322.419 60.4509C323.087 61.7356 324.021 62.7463 325.22 63.4829C326.419 64.2195 327.824 64.5878 329.434 64.5878ZM356.061 44.9054C357.397 44.9054 358.699 45.1966 359.967 45.779C361.235 46.3443 362.28 47.2522 363.102 48.5027C363.924 49.7361 364.335 51.3377 364.335 53.3077V66.6177H361.355V54.0014C361.355 51.6546 360.806 49.9673 359.71 48.9395C358.614 47.8946 357.209 47.3721 355.496 47.3721C354.365 47.3721 353.269 47.6976 352.207 48.3485C351.162 48.9995 350.297 49.8902 349.612 51.0208C348.944 52.1514 348.61 53.419 348.61 54.8237V66.6177H345.681V45.5221H348.61V49.5819C348.73 48.9823 349.132 48.3228 349.817 47.6034C350.52 46.8668 351.411 46.233 352.49 45.702C353.586 45.1709 354.777 44.9054 356.061 44.9054ZM395.009 50.8153V60.1168H392.439V50.8153H383.163V48.2971H392.439V39.0213H395.009V48.2971H404.259V50.8153H395.009ZM415.669 36.1948L409.554 39.7664V36.8629L416.569 32.7003H418.573V66.6177H415.669V36.1948ZM436.785 34.7559C435.261 34.7559 433.916 35.0471 432.751 35.6295C431.604 36.2119 430.644 36.8971 429.873 37.6851C429.12 38.4731 428.546 39.184 428.152 39.8178C427.758 40.4516 427.544 40.8028 427.509 40.8713L424.889 39.7664C424.923 39.6465 425.086 39.3125 425.377 38.7643C425.668 38.2161 426.113 37.5738 426.713 36.8372C427.312 36.0835 428.075 35.3469 429 34.6274C429.925 33.8908 431.03 33.2827 432.314 32.8031C433.616 32.3234 435.107 32.0836 436.785 32.0836C438.413 32.0836 439.843 32.3063 441.076 32.7517C442.31 33.1799 443.355 33.8223 444.211 34.6788C445.068 35.5182 445.719 36.5631 446.164 37.8136C446.609 39.0641 446.832 40.503 446.832 42.1303C446.832 43.5521 446.464 45.051 445.727 46.627C445.008 48.1858 444.066 49.7446 442.901 51.3035C441.736 52.8452 440.485 54.3183 439.149 55.723C437.813 57.1277 436.511 58.4038 435.244 59.5516C433.976 60.6993 432.88 61.6585 431.955 62.4294C431.03 63.1831 430.413 63.6799 430.105 63.9197H446.549V66.6177H425.428V64.151C426.079 63.6199 426.97 62.8919 428.1 61.9669C429.248 61.0247 430.516 59.937 431.903 58.7036C433.308 57.4703 434.704 56.1512 436.092 54.7466C437.479 53.3419 438.764 51.9116 439.946 50.4555C441.128 48.9823 442.07 47.5349 442.772 46.1131C443.492 44.6913 443.851 43.3637 443.851 42.1303C443.851 39.3895 443.235 37.4796 442.001 36.4004C440.785 35.304 439.047 34.7559 436.785 34.7559ZM477.318 32.7003H479.708L459.666 66.6177H457.276L477.318 32.7003ZM453.011 40.1775C453.011 38.9784 453.302 37.9078 453.884 36.9657C454.484 36.0235 455.28 35.2869 456.274 34.7559C457.285 34.2077 458.407 33.9336 459.64 33.9336C460.839 33.9336 461.927 34.2077 462.903 34.7559C463.897 35.2869 464.693 36.0235 465.293 36.9657C465.892 37.9078 466.192 38.9784 466.192 40.1775C466.192 41.3424 465.901 42.3959 465.318 43.338C464.753 44.2802 463.974 45.0253 462.98 45.5735C462.004 46.1216 460.89 46.3957 459.64 46.3957C458.338 46.3957 457.19 46.1216 456.197 45.5735C455.203 45.0253 454.424 44.2802 453.859 43.338C453.293 42.3959 453.011 41.3424 453.011 40.1775ZM455.323 40.1775C455.323 41.4965 455.709 42.5243 456.479 43.2609C457.267 43.9975 458.304 44.3658 459.588 44.3658C460.788 44.3658 461.798 44.0061 462.621 43.2866C463.443 42.5672 463.854 41.5308 463.854 40.1775C463.854 38.8928 463.434 37.8735 462.595 37.1198C461.773 36.349 460.77 35.9635 459.588 35.9635C458.372 35.9635 457.353 36.349 456.531 37.1198C455.726 37.8735 455.323 38.8928 455.323 40.1775ZM470.843 59.1661C470.843 57.9499 471.134 56.8793 471.717 55.9543C472.299 55.0121 473.087 54.2755 474.08 53.7445C475.091 53.1963 476.213 52.9222 477.447 52.9222C478.646 52.9222 479.733 53.1963 480.71 53.7445C481.703 54.2755 482.5 55.0121 483.099 55.9543C483.699 56.8793 483.999 57.9499 483.999 59.1661C483.999 60.331 483.716 61.3845 483.151 62.3266C482.586 63.2688 481.806 64.0139 480.813 64.5621C479.819 65.1102 478.697 65.3843 477.447 65.3843C476.145 65.3843 474.997 65.1102 474.003 64.5621C473.01 64.0139 472.23 63.2688 471.665 62.3266C471.117 61.3845 470.843 60.331 470.843 59.1661ZM473.155 59.1661C473.155 60.4851 473.541 61.5129 474.312 62.2495C475.1 62.9861 476.136 63.3544 477.421 63.3544C478.62 63.3544 479.631 62.9947 480.453 62.2752C481.275 61.5386 481.686 60.5023 481.686 59.1661C481.686 57.8814 481.267 56.8536 480.427 56.0827C479.605 55.3119 478.603 54.9265 477.421 54.9265C476.187 54.9265 475.168 55.3119 474.363 56.0827C473.558 56.8536 473.155 57.8814 473.155 59.1661Z" fill="white"/>
</svg>
