<svg width="184" height="184" viewBox="0 0 184 184" fill="none" xmlns="http://www.w3.org/2000/svg">
<rect width="183.666" height="183.666" rx="91.8329" fill="#1A1C23"/>
<path d="M76.5268 75.5703C79.9648 75.5702 83.0305 75.5701 85.3064 75.8761C87.7085 76.1991 89.8773 76.9095 91.6201 78.6523C93.3629 80.3951 94.0734 82.5639 94.3963 84.9661C94.7023 87.2419 94.7022 90.1087 94.7021 93.5465V93.5466L94.7021 95.6588C94.7021 97.2437 93.4173 98.5286 91.8323 98.5286H61.2214C59.6364 98.5286 58.3516 97.2437 58.3516 95.6588L58.3516 93.5466C58.3515 90.1087 58.3514 87.2419 58.6573 84.9661C58.9803 82.5639 59.6907 80.3951 61.4335 78.6523C63.1763 76.9095 65.3451 76.1991 67.7473 75.8761C70.0232 75.5701 73.0889 75.5702 76.5268 75.5703Z" fill="#F8FAFC"/>
<path d="M100.441 95.6592C100.441 89.8478 105.153 85.1367 110.964 85.1367C116.775 85.1367 121.486 89.8478 121.486 95.6592C121.486 101.471 116.775 106.182 110.964 106.182C105.153 106.182 100.441 101.471 100.441 95.6592Z" fill="#F8FAFC"/>
<path opacity="0.3" d="M66.0039 61.2217C66.0039 55.4103 70.715 50.6992 76.5264 50.6992C82.3379 50.6992 87.049 55.4103 87.049 61.2217C87.049 67.0332 82.3379 71.7443 76.5264 71.7443C70.715 71.7443 66.0039 67.0332 66.0039 61.2217Z" fill="#F8FAFC"/>
<g opacity="0.4">
<path d="M51.4041 105.759C52.1069 104.824 53.2357 104.27 54.4377 104.27H84.3529C85.9625 104.27 87.3915 105.258 87.9005 106.722L94.527 125.793H105.311C107.376 125.793 109.05 127.399 109.05 129.38C109.05 131.361 107.376 132.967 105.311 132.967H59.2213L50.8902 108.991C50.5101 107.897 50.7013 106.695 51.4041 105.759Z" fill="#F8FAFC"/>
<path d="M95.5712 113.238C95.5712 111.256 97.2453 109.65 99.3106 109.65H121.747C127.943 109.65 132.965 114.469 132.965 120.412V122.206C132.965 128.149 127.943 132.967 121.747 132.967H118.529C116.464 132.967 114.79 131.361 114.79 129.38C114.79 127.399 116.464 125.793 118.529 125.793H121.747C123.812 125.793 125.486 124.187 125.486 122.206V120.412C125.486 118.431 123.812 116.825 121.747 116.825H99.3106C97.2453 116.825 95.5712 115.219 95.5712 113.238Z" fill="#F8FAFC"/>
</g>
</svg>
