<svg width="184" height="184" viewBox="0 0 184 184" fill="none" xmlns="http://www.w3.org/2000/svg">
<rect width="183.666" height="183.666" rx="91.8329" fill="#1A1C23"/>
<g opacity="0.4">
<path d="M115.597 62.1797L124.288 107.374C124.687 109.449 123.328 111.455 121.253 111.854C119.178 112.253 117.172 110.894 116.773 108.819L107.804 62.1797H115.597Z" fill="#F8FAFC"/>
<path d="M93.7455 62.1797V108.096C93.7455 110.209 92.0324 111.923 89.9192 111.923C87.8059 111.923 86.0928 110.209 86.0928 108.096V62.1797L93.7455 62.1797Z" fill="#F8FAFC"/>
<path d="M74.6137 62.1797V108.096C74.6137 110.209 72.9006 111.923 70.7873 111.923C68.6741 111.923 66.9609 110.209 66.9609 108.096V62.1797H74.6137Z" fill="#F8FAFC"/>
</g>
<path d="M58.3516 116.703C58.3516 109.835 63.9192 104.268 70.7873 104.268C77.6553 104.268 83.223 109.835 83.223 116.703C83.223 123.571 77.6553 129.139 70.7873 129.139C63.9192 129.139 58.3516 123.571 58.3516 116.703Z" fill="#F8FAFC"/>
<path d="M77.4824 116.703C77.4824 109.835 83.0501 104.268 89.9181 104.268C96.7862 104.268 102.354 109.835 102.354 116.703C102.354 123.571 96.7862 129.139 89.9181 129.139C83.0501 129.139 77.4824 123.571 77.4824 116.703Z" fill="#F8FAFC"/>
<path d="M109.051 116.703C109.051 109.835 114.618 104.268 121.486 104.268C128.355 104.268 133.922 109.835 133.922 116.703C133.922 123.571 128.355 129.139 121.486 129.139C114.618 129.139 109.051 123.571 109.051 116.703Z" fill="#F8FAFC"/>
<path d="M126.27 58.3525C126.27 60.4657 124.556 62.1788 122.443 62.1788L53.5686 62.1788C51.4553 62.1788 49.7422 60.4657 49.7422 58.3525C49.7422 56.2392 51.4553 54.5261 53.5686 54.5261L70.7838 54.5261L70.7906 54.5261L89.9141 54.5261L89.9191 54.5261L89.924 54.5261L110.895 54.5261C110.944 54.5252 110.993 54.5252 111.042 54.5261L122.443 54.5261C124.556 54.5261 126.27 56.2392 126.27 58.3525Z" fill="#F8FAFC"/>
</svg>
