<svg width="64" height="64" viewBox="0 0 64 64" fill="none" xmlns="http://www.w3.org/2000/svg">
<rect width="64" height="64" rx="32" fill="url(#paint0_linear_2816_570)"/>
<path opacity="0.4" d="M24.1124 19.8038C24.2295 19.7876 24.3307 19.8832 24.3307 20.0014C24.3307 22.2106 26.1216 24.0014 28.3307 24.0014H35.6641C37.8732 24.0014 39.6641 22.2106 39.6641 20.0014C39.6641 19.8832 39.7653 19.7876 39.8823 19.8038C41.0825 19.9693 42.0794 20.3231 42.8666 21.111C43.669 21.9141 44.0141 22.9253 44.1754 24.1263C44.3308 25.2832 44.3308 26.7542 44.3307 28.5795V37.4004C44.3308 39.2256 44.3308 40.6967 44.1754 41.8536C44.0141 43.0546 43.669 44.0657 42.8666 44.8689C42.0641 45.6721 41.0535 46.0177 39.8532 46.1792C38.6972 46.3348 37.2274 46.3348 35.404 46.3348L28.5908 46.3348C26.7674 46.3348 25.2976 46.3348 24.1416 46.1792C22.9413 46.0177 21.9307 45.6721 21.1282 44.8689C20.3258 44.0657 19.9807 43.0546 19.8194 41.8536C19.664 40.6967 19.664 39.2257 19.6641 37.4005V28.5795C19.664 26.7542 19.664 25.2832 19.8194 24.1263C19.9807 22.9253 20.3258 21.9141 21.1282 21.111C21.9154 20.3231 22.9123 19.9693 24.1124 19.8038Z" fill="white"/>
<path d="M25.9973 20.0001C25.9973 18.7114 27.042 17.6667 28.3306 17.6667H35.664C36.9526 17.6667 37.9973 18.7114 37.9973 20.0001C37.9973 21.2887 36.9526 22.3334 35.664 22.3334H28.3306C27.042 22.3334 25.9973 21.2887 25.9973 20.0001Z" fill="white"/>
<path fill-rule="evenodd" clip-rule="evenodd" d="M23.6667 29.3333C23.6667 28.781 24.1145 28.3333 24.6667 28.3333H30.0001C30.5524 28.3333 31.0001 28.781 31.0001 29.3333C31.0001 29.8855 30.5524 30.3333 30.0001 30.3333H24.6667C24.1145 30.3333 23.6667 29.8855 23.6667 29.3333Z" fill="white"/>
<path fill-rule="evenodd" clip-rule="evenodd" d="M23.6667 37.3333C23.6667 36.781 24.1145 36.3333 24.6667 36.3333H30.0001C30.5524 36.3333 31.0001 36.781 31.0001 37.3333C31.0001 37.8855 30.5524 38.3333 30.0001 38.3333H24.6667C24.1145 38.3333 23.6667 37.8855 23.6667 37.3333Z" fill="white"/>
<path d="M40.276 27.6664C40.4603 28.187 40.1878 28.7585 39.6672 28.9429C39.3688 29.0486 38.995 29.2888 38.5736 29.6584C38.1625 30.0189 37.7579 30.4562 37.3953 30.8909C37.0347 31.3232 36.7277 31.7382 36.5106 32.0457C36.4024 32.199 36.2348 32.4503 36.1776 32.5362C35.9843 32.8402 35.642 33.0174 35.2822 32.999C34.9223 32.9805 34.6001 32.7698 34.4389 32.4475C34.1649 31.8994 33.9362 31.7152 33.862 31.6657C33.8555 31.6614 33.8499 31.6579 33.8452 31.655C33.3664 31.5806 33 31.1666 33 30.6669C33 30.1147 33.4477 29.6669 34 29.6669C34.5208 29.6669 34.7595 29.8603 34.9714 30.0016C35.0883 30.0795 35.2062 30.1725 35.3238 30.2826C35.4847 30.0712 35.6647 29.8433 35.8596 29.6097C36.2617 29.1277 36.7395 28.6067 37.2549 28.1547C37.7599 27.7118 38.3567 27.2853 38.9995 27.0576C39.5201 26.8733 40.0916 27.1458 40.276 27.6664Z" fill="white"/>
<path d="M40.276 35.6664C40.4603 36.187 40.1878 36.7585 39.6672 36.9429C39.3688 37.0486 38.995 37.2888 38.5736 37.6584C38.1625 38.0189 37.7579 38.4562 37.3953 38.8909C37.0347 39.3232 36.7277 39.7382 36.5106 40.0457C36.4024 40.199 36.2348 40.4503 36.1776 40.5362C35.9843 40.8402 35.642 41.0174 35.2822 40.999C34.9223 40.9805 34.6001 40.7698 34.4389 40.4475C34.1649 39.8994 33.9362 39.7152 33.862 39.6657C33.8555 39.6614 33.8499 39.6579 33.8452 39.655C33.3664 39.5806 33 39.1666 33 38.6669C33 38.1147 33.4477 37.6669 34 37.6669C34.5208 37.6669 34.7595 37.8603 34.9714 38.0016C35.0883 38.0795 35.2062 38.1725 35.3238 38.2826C35.4847 38.0712 35.6647 37.8433 35.8596 37.6097C36.2617 37.1277 36.7395 36.6067 37.2549 36.1547C37.7599 35.7118 38.3567 35.2853 38.9995 35.0576C39.5201 34.8733 40.0916 35.1458 40.276 35.6664Z" fill="white"/>
<defs>
<linearGradient id="paint0_linear_2816_570" x1="32" y1="0" x2="32" y2="64" gradientUnits="userSpaceOnUse">
<stop stop-color="#2E2B2B"/>
<stop offset="1" stop-color="#0D0D0D"/>
</linearGradient>
</defs>
</svg>
