<svg width="64" height="64" viewBox="0 0 64 64" fill="none" xmlns="http://www.w3.org/2000/svg">
<rect width="64" height="64" rx="32" fill="url(#paint0_linear_2816_602)"/>
<path opacity="0.4" d="M40.6334 27.1139C40.7126 27.0249 40.7521 26.9804 40.7506 26.9275C40.749 26.8745 40.7069 26.8324 40.6227 26.7482L39.3389 25.4644L39.3189 25.4445C39.2438 25.3698 39.1013 25.2282 38.9944 25.0859C38.9093 24.9728 38.4604 24.3662 38.7802 23.5942C39.0999 22.8222 39.8463 22.7107 39.9864 22.6909C40.1626 22.666 40.3636 22.6665 40.4695 22.6668L42.6439 22.6669C43.2231 22.6668 43.7859 22.6666 44.2501 22.7291C44.7734 22.7994 45.3706 22.9708 45.8666 23.4669C46.3626 23.9629 46.534 24.56 46.6044 25.0834C46.6668 25.5475 46.6667 26.1103 46.6666 26.6894L46.6666 28.864C46.6669 28.9699 46.6675 29.1708 46.6426 29.347C46.6227 29.4872 46.5112 30.2335 45.7392 30.5533C44.9672 30.8731 44.3606 30.4242 44.2475 30.3391C44.1053 30.2321 43.9636 30.0896 43.889 30.0145L43.869 29.9945L42.8893 29.0149C42.7956 28.9211 42.7487 28.8742 42.6912 28.8759C42.6336 28.8776 42.5896 28.9271 42.5015 29.0263L35.9654 36.3793C35.6078 36.7818 35.2583 37.1751 34.9256 37.463C34.5494 37.7885 34.0591 38.1029 33.4034 38.1586C32.7478 38.2143 32.2115 37.987 31.7858 37.7296C31.4093 37.5019 30.9985 37.1732 30.5782 36.8368L27.6975 34.5323C27.5379 34.4045 27.3792 34.2713 27.216 34.1445C27.0205 33.9925 26.9227 33.9165 26.7733 33.9248C26.6239 33.9331 26.5351 34.0194 26.3576 34.192C26.2094 34.3361 26.0664 34.486 25.9218 34.6306L19.6095 40.9429C19.0888 41.4636 18.2446 41.4636 17.7239 40.9429C17.2032 40.4222 17.2032 39.578 17.7239 39.0573L24.0836 32.6976C24.4436 32.3374 24.7975 31.9834 25.1305 31.7261C25.5081 31.4343 25.9909 31.1589 26.6182 31.1242C27.2455 31.0894 27.7558 31.3098 28.1633 31.5581C28.5226 31.7771 28.9134 32.0898 29.311 32.408L32.1893 34.7107C32.3585 34.846 32.5267 34.9874 32.6998 35.1218C32.906 35.282 33.0091 35.362 33.1648 35.3488C33.3206 35.3356 33.4087 35.2393 33.585 35.0467C33.7329 34.885 33.8749 34.7173 34.0188 34.5554L40.6334 27.1139Z" fill="white"/>
<path fill-rule="evenodd" clip-rule="evenodd" d="M21.3334 26.6666C21.3334 25.9302 21.9303 25.3333 22.6667 25.3333H30.6667C31.4031 25.3333 32 25.9302 32 26.6666C32 27.403 31.4031 27.9999 30.6667 27.9999H22.6667C21.9303 27.9999 21.3334 27.403 21.3334 26.6666Z" fill="white"/>
<defs>
<linearGradient id="paint0_linear_2816_602" x1="32" y1="0" x2="32" y2="64" gradientUnits="userSpaceOnUse">
<stop stop-color="#2E2B2B"/>
<stop offset="1" stop-color="#0D0D0D"/>
</linearGradient>
</defs>
</svg>
