<svg width="64" height="64" viewBox="0 0 64 64" fill="none" xmlns="http://www.w3.org/2000/svg">
<rect width="64" height="64" rx="32" fill="url(#paint0_linear_2816_586)"/>
<path opacity="0.4" d="M29.3333 24.3335C28.9149 24.3335 28.5407 24.594 28.3955 24.9865L27.7077 26.8452C26.774 29.3683 26.3946 30.3321 25.6966 31.0301C24.9986 31.7281 24.0348 32.1075 21.5117 33.0412L19.653 33.729C19.2605 33.8742 19 34.2484 19 34.6668C19 35.0853 19.2605 35.4595 19.653 35.6047L21.5117 36.2925C24.0348 37.2261 24.9986 37.6055 25.6966 38.3036C26.3946 39.0016 26.774 39.9653 27.7077 42.4885L28.3955 44.3472C28.5407 44.7396 28.9149 45.0002 29.3333 45.0002C29.7518 45.0002 30.126 44.7396 30.2712 44.3472L30.959 42.4885C31.8926 39.9653 32.272 39.0016 32.9701 38.3036C33.6681 37.6055 34.6318 37.2261 37.155 36.2925L39.0137 35.6047C39.4061 35.4595 39.6667 35.0853 39.6667 34.6668C39.6667 34.2484 39.4061 33.8742 39.0137 33.729L37.155 33.0412C34.6318 32.1075 33.6681 31.7281 32.9701 31.0301C32.272 30.3321 31.8926 29.3683 30.959 26.8452L30.2712 24.9865C30.126 24.594 29.7518 24.3335 29.3333 24.3335Z" fill="white"/>
<path d="M40 19C39.5816 19 39.2074 19.2605 39.0621 19.653L38.7674 20.4496C38.3491 21.5799 38.2274 21.8473 38.0373 22.0373C37.8473 22.2274 37.5799 22.3491 36.4496 22.7674L35.653 23.0621C35.2605 23.2074 35 23.5816 35 24C35 24.4184 35.2605 24.7926 35.653 24.9379L36.4496 25.2326C37.5799 25.6509 37.8473 25.7726 38.0373 25.9627C38.2274 26.1527 38.3491 26.4201 38.7674 27.5504L39.0621 28.347C39.2074 28.7395 39.5816 29 40 29C40.4184 29 40.7926 28.7395 40.9379 28.347L41.2326 27.5504C41.6509 26.4201 41.7726 26.1527 41.9627 25.9627C42.1527 25.7726 42.4201 25.6509 43.5504 25.2326L44.347 24.9378C44.7395 24.7926 45 24.4184 45 24C45 23.5816 44.7395 23.2074 44.347 23.0621L43.5504 22.7674C42.4201 22.3491 42.1527 22.2274 41.9627 22.0373C41.7726 21.8473 41.6509 21.5799 41.2326 20.4496L40.9379 19.653C40.7926 19.2605 40.4184 19 40 19Z" fill="white"/>
<defs>
<linearGradient id="paint0_linear_2816_586" x1="32" y1="0" x2="32" y2="64" gradientUnits="userSpaceOnUse">
<stop stop-color="#2E2B2B"/>
<stop offset="1" stop-color="#0D0D0D"/>
</linearGradient>
</defs>
</svg>
